<?xml version="1.0" encoding="UTF-8"?>
<!-- Created with Inkscape (http://www.inkscape.org/) -->
<svg width="119.45mm" height="119.45mm" version="1.1" viewBox="0 0 119.45 119.45" xmlns="http://www.w3.org/2000/svg" xmlns:xlink="http://www.w3.org/1999/xlink">
 <defs>
  <linearGradient id="linearGradient25534" x1="530.15" x2="488.91" y1="199.49" y2="158.25" gradientUnits="userSpaceOnUse">
   <stop stop-color="#ed1d26" offset="0"/>
   <stop stop-color="#fd845b" offset="1"/>
  </linearGradient>
  <clipPath id="clipPath25260-8-9-8">
   <rect transform="rotate(45)" x="183.81" y="115.69" width="130.94" height="130.94" rx="17.846" ry="17.846" fill="url(#linearGradient25264)" stroke-width="1.5469" style="paint-order:fill markers stroke"/>
  </clipPath>
  <filter id="filter128357-36" x="-.25097" y="-.25097" width="1.5019" height="1.5019" color-interpolation-filters="sRGB">
   <feGaussianBlur stdDeviation="7.9820139"/>
  </filter>
  <clipPath id="clipPath25266-6-5-4">
   <rect transform="rotate(45)" x="99.847" y="65.665" width="171.41" height="171.41" rx="23.362" ry="23.362" fill="url(#linearGradient25270)" stroke-width="2.025" style="paint-order:fill markers stroke"/>
  </clipPath>
  <filter id="filter128357-36-6-0" x="-.27377" y="-.27377" width="1.5475" height="1.5475" color-interpolation-filters="sRGB">
   <feGaussianBlur stdDeviation="8.7072932"/>
  </filter>
  <filter id="filter128357-36-6" x="-.37218" y="-.37218" width="1.7444" height="1.7444" color-interpolation-filters="sRGB">
   <feGaussianBlur stdDeviation="11.837189"/>
  </filter>
  <filter id="filter128357-36-6-1" x="-.28081" y="-.28081" width="1.5616" height="1.5616" color-interpolation-filters="sRGB">
   <feGaussianBlur stdDeviation="8.9310261"/>
  </filter>
 </defs>
 <g transform="translate(69.865 113.38)">
  <g transform="translate(-372.77 -38.062)">
   <path d="m311.55 9.6154c-0.45552-1.4899-0.82051-4.2252 4.3658-5.4561l5.3406 5.629z" fill="#960a5a" stroke-width="0"/>
   <path d="m412.46 9.6152c0.45551-1.4899 0.82051-4.2252-4.3658-5.4561l-4.1012 5.6641z" fill="#960a5a" stroke-width="0"/>
   <g transform="translate(144.57 -476.95)">
    <path transform="rotate(45 13.052 -27.687)" d="m473.13 130.93h61.572c6.3915 0 11.537 5.1455 11.537 11.537v61.572c0 6.3915-5.1455 11.537-11.537 11.537h-61.572c-6.3915 0-11.537-5.1455-11.537-11.537v-61.572c0-6.3915 5.1455-11.537 11.537-11.537z" fill="url(#linearGradient25534)" style="paint-order:fill markers stroke"/>
    <g fill-rule="evenodd" stroke-width=".027123">
     <path transform="matrix(.64647 0 0 .64647 186.92 264.73)" d="m150.12 275.63a38.166 38.166 0 0 1-38.166 38.166 38.166 38.166 0 0 1-38.166-38.166 38.166 38.166 0 0 1 38.166-38.166 38.166 38.166 0 0 1 38.166 38.166z" clip-path="url(#clipPath25260-8-9-8)" fill="#ff00fd" filter="url(#filter128357-36)" style="paint-order:fill markers stroke"/>
     <path transform="matrix(.49383 0 0 .49383 206.12 343.84)" d="m150.12 275.63a38.166 38.166 0 0 1-38.166 38.166 38.166 38.166 0 0 1-38.166-38.166 38.166 38.166 0 0 1 38.166-38.166 38.166 38.166 0 0 1 38.166 38.166z" clip-path="url(#clipPath25266-6-5-4)" fill="#d97ff8" filter="url(#filter128357-36-6-0)" style="paint-order:fill markers stroke"/>
     <path transform="matrix(.22623 0 0 .22623 227.09 394.85)" d="m150.12 275.63a38.166 38.166 0 0 1-38.166 38.166 38.166 38.166 0 0 1-38.166-38.166 38.166 38.166 0 0 1 38.166-38.166 38.166 38.166 0 0 1 38.166 38.166z" fill="#f72476" filter="url(#filter128357-36-6)" style="paint-order:fill markers stroke"/>
     <path transform="matrix(.27062 0 0 .27062 211 409.6)" d="m150.12 275.63a38.166 38.166 0 0 1-38.166 38.166 38.166 38.166 0 0 1-38.166-38.166 38.166 38.166 0 0 1 38.166-38.166 38.166 38.166 0 0 1 38.166 38.166z" fill="#efbc26" filter="url(#filter128357-36-6-1)" style="paint-order:fill markers stroke"/>
    </g>
   </g>
   <path d="m362.63-75.317c-4.3637 2e-5 -8.7274 1.672-12.071 5.0157l-42.639 42.639c-6.6874 6.6874-6.6874 17.455 0 24.142l42.639 42.64c6.6874 6.6874 17.455 6.6874 24.142 0l42.64-42.64c6.6874-6.6874 6.6874-17.455 0-24.142l-42.64-42.64c-3.3437-3.3437-7.7074-5.0152-12.071-5.0152zm0 4.7682c2.9491 0 5.8984 1.1297 8.1582 3.3894l43.538 43.538c4.5195 4.5195 4.5195 11.796 0 16.316l-43.538 43.538c-4.5195 4.5195-11.796 4.5195-16.316 0l-43.538-43.538c-4.5195-4.5195-4.5195-11.796 0-16.316l43.538-43.538c2.2597-2.2597 5.2086-3.3894 8.1576-3.3894z" stroke-miterlimit="0" stroke-width="0" style="paint-order:fill markers stroke"/>
   <g transform="translate(266.66 -98.162)">
    <path d="m68.218 62.259 21.099-22.367c3.7616-3.9878 8.0285-4.9544 13.832 0.16071l22.486 23.705c8.9285 10.145 9.5714 46.928-28.593 47.617-39.319 0.11116-40.123-36.793-28.824-49.116z"/>
    <path d="m69.806 61.73 20.041-21.309c3.7557-3.9934 7.4993-5.4836 13.303-0.36846l21.386 22.546c2.8335 2.8335 8.7454 19.1-0.76548 30.737-6.774 8.2879-15.479 14.934-26.972 14.934-12.714 0-22.318-6.4382-27.688-14.024-5.5358-7.821-6.1599-25.225 0.69616-32.515z" fill="#dfc84c"/>
    <path d="m71.922 62.259 18.453-19.721c3.7455-4.0029 5.3826-6.5419 11.187-1.4268l21.386 22.546c2.8335 2.8335 10.333 18.042 0.82202 29.679-6.774 8.2879-15.479 13.346-26.972 13.346-11.619 0-21.728-6.1279-26.629-14.024-5.1772-8.3399-4.815-23.377 1.7545-30.398z" fill="#fff"/>
   </g>
   <g transform="translate(128.82 -230.24)">
    <path d="m225.94 210.27c-3.7299-1.3891-3.6846-7.5966-1.0495-9.8644 2.9354-2.5262 8.3544-2.5512 11.039 0.0611 2.6448 2.5738 2.7076 7.9138-0.84065 9.8107 4.3986 2.1776 4.2191 8.691 1.4764 11.581-2.6855 2.8297-8.7146 2.9259-11.696 0.41025-3.5981-3.0358-3.3044-10.045 1.071-11.999zm6.0665-2.6343c0.844-1.0567 0.81485-3.353 0-4.3331-0.68357-0.82213-2.5435-0.838-3.2076 0-0.85494 1.0789-0.81245 3.3756 0.0293 4.3325 0.69973 0.79545 2.5171 0.82831 3.1782 5.2e-4zm-3.6913 11.008c0.99001 1.3366 3.0378 1.478 3.9953 0 0.63182-0.97532 0.70578-3.8862 0.0617-4.7648-0.95986-1.3094-3.1275-1.4895-4.057 0-0.55402 0.88774-0.64883 3.8888 1e-5 4.7648z" stroke-width=".26458"/>
    <path d="m247.99 222.05v-6.9476h-7.0106v-5.5264h7.0106v-6.9476h5.3793v6.9476h7.0316v5.5264h-7.0316v6.9476z" stroke-width=".33103"/>
    <path d="m219.7 223.76h-5.7777v-16.612c-1.7243 1.6123-3.3426 2.6888-5.6827 3.4614v-5.5237c3.1919-1.2324 5.5154-3.515 6.5728-6.4615h4.8876z" stroke-width=".26458"/>
   </g>
   <path d="m311.55 9.6154 100.92-2.4e-4 -2.8914 10.775 2.8914 10.776-100.92 1.1e-4 2.9644-10.776z" fill="#1a1a1a" stroke-width="0"/>
   <g transform="translate(265.61 -98.162)" fill="#fff">
    <g stroke-width=".026458" aria-label="适龄提示">
     <path d="m74.74 112.12q0.62811 0.84509 1.5189 2.1584l-1.3247 0.82224q-0.66237-1.0963-1.4618-2.2498zm2.3297 4.9449h2.5467v-0.98213h-3.2319v-1.3247h3.2319v-0.93645l-2.7637 0.1142q-0.07994-0.6281-0.20556-1.3019 4.1912-0.10278 7.012-0.33118l0.19414 1.2905-2.718 0.15417v1.0107h3.2433v1.3247h-3.2433v0.98213h2.501v3.8029h-6.5666zm5.0705 2.5238v-1.2448h-3.5745v1.2448zm2.3297 1.8729q-0.30834 0.90219-0.49106 1.5189-3.9114 0.0285-5.8243-0.0343-1.9129-0.0628-2.935-1.0621-0.77657 0.76515-1.3247 1.3704l-0.65095-1.7587 1.142-0.97071v-2.8893h-1.0621v-1.4504h2.5581v4.3454q0.85651 0.965 2.6038 0.965l2.1356 0.04q1.6616 0 3.8486-0.0742z"/>
     <path d="m96.21 115.66q-0.30834 0.73089-0.63953 1.5417-1.4618-1.3704-2.5809-3.3004-0.79941 1.7587-2.3069 3.4146-0.18272-0.38829-0.3997-0.78799h-5.4246v-1.1991h0.62811v-2.5924h1.1877v2.5924h0.58243v-3.3918h1.3933v1.2562h1.4846v1.1648h-1.4846v0.97071h1.7359q1.2105-1.3133 1.9985-3.2776h1.4389l-0.19414 0.43397q1.1991 2.0328 2.5809 3.1748zm-7.9484 1.0621q0 0.78799-0.14846 1.4732 0.49106 0.55958 0.94787 1.1306v-2.147h1.2562v6.0869h-1.2562v-0.35403l-4.0199 0.18273v-5.9156h1.2562v2.364q0.81083-0.89077 0.81083-2.8208zm3.2205 2.7637q0.66237 0.5139 1.3133 1.0278l1.2676-1.6788h-3.5859v-1.2105h5.2647v1.142l-1.8843 2.5695q0.59385 0.46822 1.1991 0.94787l-0.95929 1.1192q-1.8044-1.5417-3.4717-2.9121zm-3.7686-0.0799q-0.35402 0.78799-1.005 1.5074-0.19414-0.2284-0.41112-0.4568v1.3476l2.7637-0.10278v-1.1306l-0.31976 0.26266q-0.50248-0.69662-1.0278-1.4275zm4.3396-3.6659 1.0278-0.50248q0.43396 0.77656 0.93645 1.8158l-1.1192 0.45681q-0.38828-0.89077-0.84509-1.7701z"/>
     <path d="m96.553 114.1h1.1192v-2.0099h1.4732v2.0099h0.91361v1.4161h-0.91361v1.6502l0.84509-0.2227q-0.01142 0.90219 0.01142 1.5303l-0.85654 0.24553v2.9635q0 0.91361-0.41683 1.2048-0.41112 0.29122-1.9243 0.26838-0.10278-0.63953-0.2855-1.4732h0.84509q0.30834 0 0.30834-0.3997v-2.1527l-1.0507 0.29121-0.12562-1.6788 1.1763-0.24553v-1.9814h-1.1192zm4.3168-1.793h6.2125v4.7736h-6.2125zm4.7508 1.2676h-3.289v0.61669h3.289zm0 2.2383v-0.61668h-3.289v0.61668zm-4.7394 7.5144q-0.95929-0.70805-1.2448-0.86793 1.1649-1.2905 1.3933-3.3461l1.3362 0.2855q-0.0685 0.49677-0.1713 0.95929 0.70805 0.94787 1.1877 1.0906v-2.5067h-3.1291v-1.3133h7.583v1.3133h-2.9921v0.69663h2.6038v1.2448h-2.6038v0.75944q1.4561 0.0171 3.0606-0.0171-0.13704 0.51391-0.30834 1.3476-2.1984 0.0457-3.5688-0.04-1.3704-0.0799-2.2612-1.1706-0.35403 0.87935-0.88506 1.5646z"/>
     <path d="m109.45 112.62h8.9534v1.6217h-8.9534zm-1.0278 3.1177h10.963v1.6217h-4.4082v3.7801q0 0.94787-0.33118 1.3362-0.33118 0.39399-0.80512 0.51391-0.46822 0.12562-2.4154 0.12562-0.19415-0.98213-0.38829-1.713 0.87364 0.0914 1.4504 0.0914 0.76515 0 0.76515-0.61669v-3.5174h-4.8307zm2.2498 2.1127 1.4732 0.77657q-1.3818 2.2269-2.5924 3.7115-0.57101-0.46823-1.3476-1.005 1.3933-1.6445 2.4668-3.4831zm6.2696 0.0571q1.3476 1.6331 2.6495 3.4146-0.61669 0.3997-1.4846 0.99355-1.0278-1.6788-2.4325-3.5631z"/>
    </g>
    <path transform="matrix(.28121 0 0 .28121 1.1814 -141.89)" d="m218.75 904.48 5.7622 13.148 14.285 1.4171-10.724 9.5432 3.0667 14.024-12.39-7.2503-12.39 7.2503 3.0667-14.024-10.724-9.5432 14.285-1.4171z" stroke-width="1.0016" style="paint-order:fill markers stroke"/>
    <path transform="matrix(.28121 0 0 .28121 68.121 -141.89)" d="m218.75 904.48 5.7622 13.148 14.285 1.4171-10.724 9.5432 3.0667 14.024-12.39-7.2503-12.39 7.2503 3.0667-14.024-10.724-9.5432 14.285-1.4171z" stroke-width="1.0016" style="paint-order:fill markers stroke"/>
   </g>
  </g>
 </g>
</svg>
