<?xml version="1.0" encoding="UTF-8"?>
<!-- Created with Inkscape (http://www.inkscape.org/) -->
<svg width="119.45mm" height="119.45mm" version="1.1" viewBox="0 0 119.45 119.45" xmlns="http://www.w3.org/2000/svg">
 <defs>
  <clipPath id="clipPath202831-4-5">
   <path transform="matrix(-.18074 .98353 -.67426 -.73849 0 0)" x="32.982258" y="-197.30429" width="229.36841" height="115.35624" rx="31.262239" ry="15.722715" d="m64.244-197.3h166.84c17.319 0 31.262 7.0123 31.262 15.723v83.911c0 8.7104-13.943 15.723-31.262 15.723h-166.84c-17.319 0-31.262-7.0123-31.262-15.723v-83.911c0-8.7104 13.943-15.723 31.262-15.723z" fill="#20b571" stroke-miterlimit="0" stroke-width="0" style="paint-order:fill markers stroke"/>
  </clipPath>
  <filter id="filter128357-7-4" x="-.17922" y="-.17922" width="1.3584" height="1.3584" color-interpolation-filters="sRGB">
   <feGaussianBlur stdDeviation="5.7002174"/>
  </filter>
  <clipPath id="clipPath202827-9-1">
   <path transform="matrix(.70597 .70824 -.70597 .70824 0 0)" x="284.22998" y="32.631355" width="95.460068" height="95.460068" rx="13.010926" ry="13.010926" d="m297.24 32.631h69.438c7.2081 0 13.011 5.8029 13.011 13.011v69.438c0 7.208-5.8029 13.011-13.011 13.011h-69.438c-7.2081 0-13.011-5.8029-13.011-13.011v-69.438c0-7.2081 5.8029-13.011 13.011-13.011z" fill="#20b571" stroke-miterlimit="0" stroke-width="0" style="paint-order:fill markers stroke"/>
  </clipPath>
  <filter id="filter209886" x="-.16062" y="-.16062" width="1.3212" height="1.3212" color-interpolation-filters="sRGB">
   <feGaussianBlur stdDeviation="5.1084889"/>
  </filter>
  <clipPath id="clipPath202835-0-3">
   <path transform="matrix(.20359 -.97906 .6731 .73956 0 0)" x="-303.06799" y="169.08743" width="221.97559" height="113.55209" rx="30.25462" ry="15.476815" d="m-272.81 169.09h161.47c16.761 0 30.255 6.9027 30.255 15.477v82.598c0 8.5742-13.494 15.477-30.255 15.477h-161.47c-16.761 0-30.255-6.9027-30.255-15.477v-82.598c0-8.5742 13.494-15.477 30.255-15.477z" fill="#20b571" stroke-miterlimit="0" stroke-width="0" style="paint-order:fill markers stroke"/>
  </clipPath>
  <filter id="filter128357-7-0" x="-.17922" y="-.17922" width="1.3584" height="1.3584" color-interpolation-filters="sRGB">
   <feGaussianBlur stdDeviation="5.7002174"/>
  </filter>
  <clipPath id="clipPath202839-0-2">
   <path transform="matrix(.14233 .98982 -.59536 .80346 0 0)" x="201.78391" y="-148.40244" width="206.63676" height="140.34048" rx="28.163982" ry="19.127995" d="m229.95-148.4h150.31c15.603 0 28.164 8.5311 28.164 19.128v102.08c0 10.597-12.561 19.128-28.164 19.128h-150.31c-15.603 0-28.164-8.5311-28.164-19.128v-102.08c0-10.597 12.561-19.128 28.164-19.128z" fill="#20b571" stroke-miterlimit="0" stroke-width="0" style="paint-order:fill markers stroke"/>
  </clipPath>
  <filter id="filter128357-7" x="-.17922" y="-.17922" width="1.3584" height="1.3584" color-interpolation-filters="sRGB">
   <feGaussianBlur stdDeviation="5.7002174"/>
  </filter>
 </defs>
 <g transform="translate(58.402 39.63)">
  <g transform="translate(-224.61 35.686)">
   <g stroke-width="0">
    <path d="m174.76 9.6154c-0.45552-1.4899-0.82051-4.2252 4.3658-5.4561l5.6447 5.7694z" fill="#e65a1b"/>
    <path d="m275.67 9.6152c0.45551-1.4899 0.82051-4.2252-4.3658-5.4561l-4.9832 5.792z" fill="#e65a1b"/>
    <path transform="rotate(45)" d="m118.04-213.01h61.572c6.3915 0 11.537 5.1455 11.537 11.537v61.572c0 6.3915-5.1455 11.537-11.537 11.537h-61.572c-6.3915 0-11.537-5.1455-11.537-11.537v-61.572c0-6.3915 5.1455-11.537 11.537-11.537z" fill="#fea124" stroke-miterlimit="0" style="paint-order:fill markers stroke"/>
   </g>
   <g fill-rule="evenodd" stroke-width=".027123">
    <path transform="matrix(.42171 -.93645 .35813 .10945 108.54 20.523)" d="m150.12 275.63a38.166 38.166 0 0 1-38.166 38.166 38.166 38.166 0 0 1-38.166-38.166 38.166 38.166 0 0 1 38.166-38.166 38.166 38.166 0 0 1 38.166 38.166z" clip-path="url(#clipPath202831-4-5)" fill="#95cc32" filter="url(#filter128357-7-4)" style="paint-order:fill markers stroke"/>
    <path transform="matrix(.93942 0 0 .93942 59.07 -289.79)" d="m150.12 275.63a38.166 38.166 0 0 1-38.166 38.166 38.166 38.166 0 0 1-38.166-38.166 38.166 38.166 0 0 1 38.166-38.166 38.166 38.166 0 0 1 38.166 38.166z" clip-path="url(#clipPath202827-9-1)" fill="#fdfb00" filter="url(#filter209886)" style="paint-order:fill markers stroke"/>
    <path transform="matrix(-.41372 .93781 -.37734 -.097233 406.64 -86.836)" d="m150.12 275.63a38.166 38.166 0 0 1-38.166 38.166 38.166 38.166 0 0 1-38.166-38.166 38.166 38.166 0 0 1 38.166-38.166 38.166 38.166 0 0 1 38.166 38.166z" clip-path="url(#clipPath202835-0-3)" fill="#39b266" filter="url(#filter128357-7-0)" style="paint-order:fill markers stroke"/>
    <path transform="matrix(.98441 -.28565 .16798 .3516 97.162 -73.836)" d="m150.12 275.63a38.166 38.166 0 0 1-38.166 38.166 38.166 38.166 0 0 1-38.166-38.166 38.166 38.166 0 0 1 38.166-38.166 38.166 38.166 0 0 1 38.166 38.166z" clip-path="url(#clipPath202839-0-2)" fill="#e3aa3a" filter="url(#filter128357-7)" style="paint-order:fill markers stroke"/>
   </g>
   <path d="m225.93-75.317c-4.3637 2e-5 -8.7274 1.672-12.071 5.0157l-42.639 42.639c-6.6874 6.6874-6.6874 17.455 0 24.142l42.639 42.64c6.6874 6.6874 17.455 6.6874 24.142 0l42.64-42.64c6.6874-6.6874 6.6874-17.455 0-24.142l-42.64-42.64c-3.3437-3.3437-7.7074-5.0152-12.071-5.0152zm0 4.7682c2.9491 0 5.8984 1.1297 8.1582 3.3894l43.538 43.538c4.5195 4.5195 4.5195 11.796 0 16.316l-43.538 43.538c-4.5195 4.5195-11.796 4.5195-16.316 0l-43.538-43.538c-4.5195-4.5195-4.5195-11.796 0-16.316l43.538-43.538c2.2597-2.2597 5.2086-3.3894 8.1576-3.3894z" stroke-miterlimit="0" stroke-width="0" style="paint-order:fill markers stroke"/>
   <g transform="translate(129.87 -98.162)">
    <path d="m68.218 62.259 21.099-22.367c3.7616-3.9878 8.0285-4.9544 13.832 0.16071l22.486 23.705c8.9285 10.145 9.5714 46.928-28.593 47.617-39.319 0.11116-40.123-36.793-28.824-49.116z"/>
    <path d="m69.806 61.73 20.041-21.309c3.7557-3.9934 7.4993-5.4836 13.303-0.36846l21.386 22.546c2.8335 2.8335 8.7454 19.1-0.76548 30.737-6.774 8.2879-15.479 14.934-26.972 14.934-12.714 0-22.318-6.4382-27.688-14.024-5.5358-7.821-6.1599-25.225 0.69616-32.515z" fill="#dfc84c"/>
    <path d="m71.922 62.259 18.453-19.721c3.7455-4.0029 5.3826-6.5419 11.187-1.4268l21.386 22.546c2.8335 2.8335 10.333 18.042 0.82202 29.679-6.774 8.2879-15.479 13.346-26.972 13.346-11.619 0-21.728-6.1279-26.629-14.024-5.1772-8.3399-4.815-23.377 1.7545-30.398z" fill="#fff"/>
   </g>
   <g transform="translate(128.82 -230.24)">
    <path d="m82.801 223.76h-5.7777v-16.612c-1.7243 1.6123-3.3426 2.6888-5.6826 3.4614v-5.5237c3.1919-1.2324 5.5154-3.515 6.5728-6.4615h4.8876z" stroke-width=".26458"/>
    <path d="m101.66 204.49-5.7488 0.91147c-0.11461-1.0261-1.0778-3.0209-2.1207-2.7206-2.327 0.67017-2.6759 5.0044-2.7808 6.6375 1.0315-1.6478 2.6405-2.2089 4.2444-2.2759 1.6613-0.0693 3.1746 0.4851 4.5772 1.9826 1.4078 1.5031 2.2241 3.9971 2.2448 6.1927 0.0216 2.2876-0.61592 4.8611-2.2169 6.4953-1.3992 1.4282-3.3181 2.0535-5.6358 2.0535-2.4856 0-4.5867-0.61701-6.1878-2.5428-1.6011-1.937-2.344-5.4515-2.344-9.8518 0-4.5122 0.52923-8.1444 2.4209-10.348 1.8917-2.2037 4.0641-2.6063 6.2958-2.6234 4.2667-0.0327 6.8543 2.716 7.2516 6.0894zm-9.5046 13.948c1.0923 1.3078 3.2971 1.005 3.9573-0.1379 0.71785-1.2426 0.76515-4.4298-0.06718-5.8107-0.96447-1.6001-3.1912-1.4379-3.9212-0.19451-0.94702 1.6128-0.83716 4.715 0.03109 6.1432z" stroke-width=".26458"/>
    <path d="m111.13 221.97v-6.9476h-7.0106v-5.5264h7.0106v-6.9476h5.3793v6.9476h7.0316v5.5264h-7.0316v6.9476z" stroke-width=".33103"/>
   </g>
   <path d="m174.76 9.6154 100.92-2.4e-4 -2.8914 10.775 2.8914 10.776-100.92 1.1e-4 2.9644-10.776z" fill="#1a1a1a" stroke-width="0"/>
   <g transform="translate(128.82 -98.162)" fill="#fff">
    <g stroke-width=".026458" aria-label="适龄提示">
     <path d="m74.74 112.12q0.62811 0.84509 1.5189 2.1584l-1.3247 0.82224q-0.66237-1.0963-1.4618-2.2498zm2.3297 4.9449h2.5467v-0.98213h-3.2319v-1.3247h3.2319v-0.93645l-2.7637 0.1142q-0.07994-0.6281-0.20556-1.3019 4.1912-0.10278 7.012-0.33118l0.19414 1.2905-2.718 0.15417v1.0107h3.2433v1.3247h-3.2433v0.98213h2.501v3.8029h-6.5666zm5.0705 2.5238v-1.2448h-3.5745v1.2448zm2.3297 1.8729q-0.30834 0.90219-0.49106 1.5189-3.9114 0.0285-5.8243-0.0343-1.9129-0.0628-2.935-1.0621-0.77657 0.76515-1.3247 1.3704l-0.65095-1.7587 1.142-0.97071v-2.8893h-1.0621v-1.4504h2.5581v4.3454q0.85651 0.965 2.6038 0.965l2.1356 0.04q1.6616 0 3.8486-0.0742z"/>
     <path d="m96.21 115.66q-0.30834 0.73089-0.63953 1.5417-1.4618-1.3704-2.5809-3.3004-0.79941 1.7587-2.3069 3.4146-0.18272-0.38829-0.3997-0.78799h-5.4246v-1.1991h0.62811v-2.5924h1.1877v2.5924h0.58243v-3.3918h1.3933v1.2562h1.4846v1.1648h-1.4846v0.97071h1.7359q1.2105-1.3133 1.9985-3.2776h1.4389l-0.19414 0.43397q1.1991 2.0328 2.5809 3.1748zm-7.9484 1.0621q0 0.78799-0.14846 1.4732 0.49106 0.55958 0.94787 1.1306v-2.147h1.2562v6.0869h-1.2562v-0.35403l-4.0199 0.18273v-5.9156h1.2562v2.364q0.81083-0.89077 0.81083-2.8208zm3.2205 2.7637q0.66237 0.5139 1.3133 1.0278l1.2676-1.6788h-3.5859v-1.2105h5.2647v1.142l-1.8843 2.5695q0.59385 0.46822 1.1991 0.94787l-0.95929 1.1192q-1.8044-1.5417-3.4717-2.9121zm-3.7686-0.0799q-0.35402 0.78799-1.005 1.5074-0.19414-0.2284-0.41112-0.4568v1.3476l2.7637-0.10278v-1.1306l-0.31976 0.26266q-0.50248-0.69662-1.0278-1.4275zm4.3396-3.6659 1.0278-0.50248q0.43396 0.77656 0.93645 1.8158l-1.1192 0.45681q-0.38828-0.89077-0.84509-1.7701z"/>
     <path d="m96.553 114.1h1.1192v-2.0099h1.4732v2.0099h0.91361v1.4161h-0.91361v1.6502l0.84509-0.2227q-0.01142 0.90219 0.01142 1.5303l-0.85653 0.24553v2.9635q0 0.91361-0.41683 1.2048-0.41112 0.29122-1.9243 0.26838-0.10278-0.63953-0.2855-1.4732h0.84509q0.30834 0 0.30834-0.3997v-2.1527l-1.0507 0.29121-0.12562-1.6788 1.1763-0.24553v-1.9814h-1.1192zm4.3168-1.793h6.2125v4.7736h-6.2125zm4.7508 1.2676h-3.289v0.61669h3.289zm0 2.2383v-0.61668h-3.289v0.61668zm-4.7394 7.5144q-0.95929-0.70805-1.2448-0.86793 1.1649-1.2905 1.3933-3.3461l1.3362 0.2855q-0.0685 0.49677-0.1713 0.95929 0.70805 0.94787 1.1877 1.0906v-2.5067h-3.1291v-1.3133h7.583v1.3133h-2.9921v0.69663h2.6038v1.2448h-2.6038v0.75944q1.4561 0.0171 3.0606-0.0171-0.13704 0.51391-0.30834 1.3476-2.1984 0.0457-3.5688-0.04-1.3704-0.0799-2.2612-1.1706-0.35403 0.87935-0.88506 1.5646z"/>
     <path d="m109.45 112.62h8.9534v1.6217h-8.9534zm-1.0278 3.1177h10.963v1.6217h-4.4082v3.7801q0 0.94787-0.33118 1.3362-0.33118 0.39399-0.80512 0.51391-0.46822 0.12562-2.4154 0.12562-0.19415-0.98213-0.38829-1.713 0.87364 0.0914 1.4504 0.0914 0.76515 0 0.76515-0.61669v-3.5174h-4.8307zm2.2498 2.1127 1.4732 0.77657q-1.3818 2.2269-2.5924 3.7115-0.57101-0.46823-1.3476-1.005 1.3933-1.6445 2.4668-3.4831zm6.2696 0.0571q1.3476 1.6331 2.6495 3.4146-0.61669 0.3997-1.4846 0.99355-1.0278-1.6788-2.4325-3.5631z"/>
    </g>
    <path transform="matrix(.28121 0 0 .28121 1.1814 -141.89)" d="m218.75 904.48 5.7622 13.148 14.285 1.4171-10.724 9.5432 3.0667 14.024-12.39-7.2503-12.39 7.2503 3.0667-14.024-10.724-9.5432 14.285-1.4171z" stroke-width="1.0016" style="paint-order:fill markers stroke"/>
    <path transform="matrix(.28121 0 0 .28121 68.121 -141.89)" d="m218.75 904.48 5.7622 13.148 14.285 1.4171-10.724 9.5432 3.0667 14.024-12.39-7.2503-12.39 7.2503 3.0667-14.024-10.724-9.5432 14.285-1.4171z" stroke-width="1.0016" style="paint-order:fill markers stroke"/>
   </g>
  </g>
 </g>
</svg>
